<svg width="444" height="444" viewBox="0 0 444 444" fill="none" xmlns="http://www.w3.org/2000/svg">
<path d="M30 222H0C0.00404885 175.911 14.3525 130.966 41.0548 93.4006C67.757 55.835 105.489 27.5114 149.016 12.3594C192.543 -2.79257 239.707 -4.02175 283.964 8.84243C328.221 21.7066 367.377 48.0263 396 84.15V51H426V156H321V126H388.27C371.403 96.8276 347.163 72.6023 317.98 55.7529C288.797 38.9036 255.698 30.0225 222 30C116.13 30 30 116.13 30 222ZM414 222C414 327.87 327.87 414 222 414C188.302 413.978 155.203 405.096 126.02 388.247C96.8374 371.398 72.5972 347.172 55.73 318H123V288H18V393H48V359.85C76.6227 395.974 115.779 422.293 160.036 435.158C204.293 448.022 251.457 446.793 294.984 431.641C338.511 416.489 376.243 388.165 402.945 350.599C429.647 313.034 443.996 268.089 444 222H414Z" fill="white"/>
</svg>
